# xmcd
#
# Track frame offsets: 
#        150
#        11374
#        21713
#        38895
#        49821
#        59619
#        72280
#        84704
#        94000
#        105555
#        113941
#        126138
#
# Disc length: 1855 seconds
#
# Revision: 0
# Processed by: cddbd v1.5.2PL0 Copyright (c) Steve Scherf et al.
# Submitted via: ExactAudioCopy v0.95b4
#
DISCID=a4073d0c
DTITLE=Ronnie McDowell - The Number Ones That Got Away Vol. 2
DYEAR=1900
DGENRE=Country
TTITLE0=I'm coming home
TTITLE1=Make me know it
TTITLE2=Until it's time for you to go
TTITLE3=The girl of my best friend
TTITLE4=The wonder of you
TTITLE5=Pledging my love
TTITLE6=Puppet on a string
TTITLE7=Don't you think it's time
TTITLE8=Separate ways
TTITLE9=Your time hasn't come yet baby
TTITLE10=To get to you
TTITLE11=He's got you
EXTD=
EXTT0=
EXTT1=
EXTT2=
EXTT3=
EXTT4=
EXTT5=
EXTT6=
EXTT7=
EXTT8=
EXTT9=
EXTT10=
EXTT11=
PLAYORDER=
